<svg width="81" height="74" viewBox="0 0 81 74" fill="none" xmlns="http://www.w3.org/2000/svg">
<g clip-path="url(#clip0_363_138)">
<path d="M27.1591 47.6625C24.7582 44.6394 22.609 41.5602 20.7284 38.4971C17.4914 33.2262 15.0565 28.0094 13.5259 23.2193C12.9886 21.5385 12.561 19.9097 12.2507 18.3511C11.0456 20.5287 10.058 22.8567 9.32204 25.3048C3.8033 28.5002 0.5 32.557 0.5 36.9745C0.5 41.6484 4.19493 45.9196 10.2983 49.1891C12.107 50.1587 14.1275 51.0382 16.324 51.8155C21.4001 53.6126 27.4259 54.8567 33.9908 55.3555C31.6657 53.0216 29.3708 50.4472 27.1591 47.6605V47.6625Z" fill="url(#paint0_linear_363_138)"/>
<path d="M71.6519 25.2908C70.1989 24.4514 68.5926 23.672 66.8521 22.9608C62.0352 20.9935 56.1949 19.5591 49.751 18.8479C51.1794 20.4105 52.587 22.0613 53.9643 23.7942C57.1749 27.8371 59.9371 31.9821 62.2055 36.0509C64.9961 41.0574 67.0375 45.9496 68.2351 50.3971C68.481 51.3087 68.6929 52.2042 68.867 53.0756C69.5424 51.8316 70.1459 50.5394 70.6738 49.2031C76.7922 45.9316 80.5004 41.6544 80.5004 36.9745C80.5004 32.549 77.1858 28.4862 71.6538 25.2908H71.6519Z" fill="url(#paint1_linear_363_138)"/>
<path d="M40.488 1.2019C36.5811 1.2019 32.8351 1.92913 29.3616 3.25938C23.3679 0.699056 18.1841 0.568836 14.9356 3.46172C11.708 6.33456 10.9285 11.7176 12.2491 18.3528C12.5594 19.9115 12.987 21.5402 13.5243 23.2211C15.0548 28.0111 17.4916 33.2279 20.7268 38.4988C22.4768 34.5001 24.6355 30.3992 27.1821 26.3363C28.881 23.6277 30.6613 21.0814 32.4908 18.7195C35.0354 15.4339 37.6709 12.507 40.3101 9.99674C43.5945 6.87147 46.8808 4.39529 49.9911 2.69042C46.9829 1.72479 43.7932 1.20391 40.4861 1.20391L40.488 1.2019Z" fill="url(#paint2_linear_363_138)"/>
<path d="M68.8664 53.0755C68.6924 52.204 68.4805 51.3085 68.2345 50.397C67.0369 45.9495 64.9956 41.0572 62.205 36.0508C60.5703 39.6168 58.616 43.2529 56.357 46.855C54.5313 49.7659 52.6091 52.4905 50.634 55.0008C48.2028 58.092 45.6904 60.8566 43.1779 63.2427C40.2719 66.0013 37.364 68.2531 34.5791 69.9119C36.4956 70.2825 38.4708 70.4769 40.4895 70.4769C44.5268 70.4769 48.3939 69.6996 51.9659 68.2832C57.8725 70.7593 62.9769 70.8555 66.1875 67.9967C69.4189 65.1198 70.1965 59.7247 68.8683 53.0775L68.8664 53.0755Z" fill="url(#paint3_linear_363_138)"/>
<path d="M40.4991 55.6037C38.2818 55.6037 36.1099 55.5176 33.9909 55.3573C27.4278 54.8565 21.402 53.6124 16.3241 51.8173C14.1257 51.04 12.1051 50.1586 10.2983 49.1909C11.5811 52.4384 13.316 55.4334 15.4217 58.0899C15.0017 64.4286 16.379 69.3489 19.7409 71.7149C23.3753 74.2712 28.7049 73.4078 34.5774 69.9119C37.3623 68.2531 40.2702 66.0033 43.1762 63.2426C45.6887 60.8566 48.1992 58.0919 50.6323 55.0007C47.3952 55.3934 43.9992 55.6037 40.4991 55.6037Z" fill="url(#paint4_linear_363_138)"/>
<path d="M67.9417 17.0047C68.7892 9.75043 67.4895 4.07286 63.7983 1.47647C60.3777 -0.929585 55.4568 -0.306534 49.993 2.68852C46.8826 4.3934 43.5964 6.86957 40.312 9.99485C37.6728 12.5051 35.0373 15.432 32.4927 18.7176C35.0808 18.4732 37.7579 18.3429 40.5012 18.3429C43.6853 18.3429 46.7824 18.5172 49.7527 18.8438C56.1966 19.555 62.0351 20.9914 66.8538 22.9567C68.5944 23.6679 70.2006 24.4472 71.6536 25.2866C70.7625 22.3317 69.5082 19.551 67.9435 17.0007L67.9417 17.0047Z" fill="url(#paint5_linear_363_138)"/>
<path d="M62.2051 36.0508C59.9367 31.9819 57.1745 27.8369 53.9639 23.7941C52.5866 22.0612 51.179 20.4104 49.7506 18.8478C46.7802 18.5212 43.6851 18.3469 40.4991 18.3469C37.7558 18.3469 35.0787 18.4751 32.4905 18.7216C30.6611 21.0835 28.8808 23.6298 27.1818 26.3384C24.6334 30.3993 22.4766 34.5002 20.7266 38.5009C22.6071 41.5641 24.7564 44.6433 27.1572 47.6664C29.3708 50.4531 31.6657 53.0274 33.9889 55.3614C36.1079 55.5236 38.2817 55.6078 40.4972 55.6078C43.9991 55.6078 47.3951 55.3974 50.6303 55.0048C52.6055 52.4945 54.5277 49.7699 56.3534 46.859C58.6142 43.257 60.5686 39.6208 62.2013 36.0548L62.2051 36.0508Z" fill="url(#paint6_radial_363_138)"/>
</g>
<defs>
<linearGradient id="paint0_linear_363_138" x1="23.7498" y1="59.2841" x2="3.5275" y2="26.1609" gradientUnits="userSpaceOnUse">
<stop stop-color="white"/>
<stop offset="0.22" stop-color="#F7FAFD" stop-opacity="0.8"/>
<stop offset="0.71" stop-color="#E4EEFA" stop-opacity="0.31"/>
<stop offset="1" stop-color="#D8E7F8" stop-opacity="0"/>
</linearGradient>
<linearGradient id="paint1_linear_363_138" x1="58.5049" y1="12.988" x2="76.2983" y2="46.2939" gradientUnits="userSpaceOnUse">
<stop stop-color="white"/>
<stop offset="0.22" stop-color="#F7FAFD" stop-opacity="0.8"/>
<stop offset="0.71" stop-color="#E4EEFA" stop-opacity="0.31"/>
<stop offset="1" stop-color="#D8E7F8" stop-opacity="0"/>
</linearGradient>
<linearGradient id="paint2_linear_363_138" x1="16.4624" y1="37.5733" x2="34.6076" y2="1.7973" gradientUnits="userSpaceOnUse">
<stop stop-color="white"/>
<stop offset="0.22" stop-color="#F7FAFD" stop-opacity="0.8"/>
<stop offset="0.71" stop-color="#E4EEFA" stop-opacity="0.31"/>
<stop offset="1" stop-color="#D8E7F8" stop-opacity="0"/>
</linearGradient>
<linearGradient id="paint3_linear_363_138" x1="66.3956" y1="37.4111" x2="44.1917" y2="77.2518" gradientUnits="userSpaceOnUse">
<stop stop-color="white"/>
<stop offset="0.22" stop-color="#F7FAFD" stop-opacity="0.8"/>
<stop offset="0.71" stop-color="#E4EEFA" stop-opacity="0.31"/>
<stop offset="1" stop-color="#D8E7F8" stop-opacity="0"/>
</linearGradient>
<linearGradient id="paint4_linear_363_138" x1="44.6916" y1="67.1693" x2="9.39943" y2="54.949" gradientUnits="userSpaceOnUse">
<stop stop-color="white"/>
<stop offset="0.22" stop-color="#F7FAFD" stop-opacity="0.8"/>
<stop offset="0.71" stop-color="#E4EEFA" stop-opacity="0.31"/>
<stop offset="1" stop-color="#D8E7F8" stop-opacity="0"/>
</linearGradient>
<linearGradient id="paint5_linear_363_138" x1="29.757" y1="8.46426" x2="71.9109" y2="12.8562" gradientUnits="userSpaceOnUse">
<stop stop-color="white"/>
<stop offset="0.22" stop-color="#F7FAFD" stop-opacity="0.8"/>
<stop offset="0.71" stop-color="#E4EEFA" stop-opacity="0.31"/>
<stop offset="1" stop-color="#D8E7F8" stop-opacity="0"/>
</linearGradient>
<radialGradient id="paint6_radial_363_138" cx="0" cy="0" r="1" gradientUnits="userSpaceOnUse" gradientTransform="translate(41.4658 36.9744) scale(19.2295 20.3624)">
<stop stop-color="#E2E2E2" stop-opacity="0"/>
<stop offset="1" stop-color="white"/>
</radialGradient>
<clipPath id="clip0_363_138">
<rect width="80" height="73.1915" fill="white" transform="translate(0.5)"/>
</clipPath>
</defs>
</svg>
